<?xml version="1.0" encoding="utf-8" ?><svg xmlns="http://www.w3.org/2000/svg" xmlns:xlink="http://www.w3.org/1999/xlink" width="1024" height="1024" viewBox="0 0 1024 1024"><path d="M504.775 65.2485C751.234 61.3149 954.309 257.741 958.579 504.195C962.849 750.649 766.699 953.992 520.252 958.597C273.328 963.212 69.5071 766.602 65.2291 519.672C60.9511 272.742 257.839 69.1898 504.775 65.2485ZM556.449 866.747C572.97 864.168 587.407 861.798 603.68 857.55C653.128 844.388 699.174 820.762 738.703 788.269C743.959 783.872 760.016 770.163 764.32 764.982C809.129 720.397 841.425 664.812 857.968 603.804C860.463 594.412 862.538 584.913 864.188 575.337C865 570.368 865.992 560.838 867.044 556.542C859.613 555.636 841.579 556.103 833.23 556.103L769.262 556.109L556.375 556.058C555.428 571.573 556.136 594.078 556.123 610.272L556.052 713.897L556.058 813.52C556.072 829.268 555.391 851.478 556.449 866.747ZM466.878 866.554C467.696 865.208 467.391 853.875 467.393 851.136L467.409 797.171L467.445 556.587C454.244 555.577 434.399 556.109 420.744 556.092L337.282 556.055L220.632 556.053C200.731 556.055 177.712 555.522 157.977 556.251C157.176 557.125 157.178 556.801 157.349 558.575C158.481 570.31 161.122 582.683 163.712 594.137C180.44 665.433 218.773 729.825 273.475 778.514C327.484 826.854 394.955 857.567 466.878 866.554ZM556.129 467.637C564.387 467.528 573.077 467.853 581.468 467.84L656.672 467.693L866.386 467.469C866.925 462.432 862.743 442.16 861.542 436.735C849.656 381.259 824.717 329.416 788.794 285.503C734.384 218.098 646.491 167.174 559.993 157.687C558.853 157.564 557.709 157.477 556.563 157.424C555.532 207.312 556.766 258.971 556.496 309.117C556.216 361.103 555.221 415.704 556.129 467.637ZM162.029 467.529C175.253 468.055 189.839 467.751 203.182 467.731L269.993 467.681L467.508 467.536L467.429 255.516C467.431 243.558 468.592 162.492 466.603 157.868C465.292 157.259 465.99 157.458 464.354 157.69C369.555 170.289 283.761 220.359 226.163 296.701C193.957 339.031 171.828 388.364 161.576 440.538C160.622 445.394 156.601 463.107 157.511 467.001C158.948 467.841 160.31 467.577 162.029 467.529Z"/></svg>